# xmcd
#
# Track frame offsets:
#	150
#	19835
#	40952
#	66829
#	88029
#	106875
#	127394
#	148894
#	166683
#	190871
#	211249
#	228987
#	252092
#	273947
#	306262
#
# Disc length: 4325 seconds
#
# Revision: 1
# Processed by: cddbd v1.5.2PL0 Copyright (c) Steve Scherf et al.
# Submitted via: audiograbber 1.83.01
#
DISCID=d510e30f
DTITLE=Howard Livingston and Mile Marker 24 - Live On Duval
DYEAR=2008
DGENRE=Trop Rock
TTITLE0=Leave This Island
TTITLE1=Una Mas Cerveza
TTITLE2=Where Bananas Grow
TTITLE3=Lucky One
TTITLE4=Red 69 Oldsmobile
TTITLE5=The Wind Is Gonna Blow
TTITLE6=Meet Me In The Keys
TTITLE7=Blame It On The Margaritas
TTITLE8=Paradise
TTITLE9=Local On The Eights
TTITLE10=Sailin To I Don't Know
TTITLE11=Mangrove Mama's
TTITLE12=Where The Heck Is Kokomo
TTITLE13=Livin On Key West Time
TTITLE14=Going Home
EXTD=
EXTT0=
EXTT1=
EXTT2=
EXTT3=
EXTT4=
EXTT5=
EXTT6=
EXTT7=
EXTT8=
EXTT9=
EXTT10=
EXTT11=
EXTT12=
EXTT13=
EXTT14=
PLAYORDER=
